<svg xmlns="http://www.w3.org/2000/svg" width="20" height="20" viewBox="0 0 11 11" fill="none">
  <g clip-path="url(#clip0_1_17)">
    <path d="M7.74983 8.23605L10.4122 10.899C10.4441 10.931 10.4821 10.9564 10.5238 10.9737C10.5656 10.9911 10.6104 11 10.6556 11C10.7008 11 10.7456 10.9911 10.7874 10.9737C10.8291 10.9564 10.8671 10.931 10.899 10.899C10.931 10.8671 10.9564 10.8291 10.9737 10.7874C10.9911 10.7456 11 10.7008 11 10.6556C11 10.6104 10.9911 10.5656 10.9737 10.5238C10.9564 10.4821 10.931 10.4441 10.899 10.4122L8.44774 7.96171C10.0842 6.07295 10.0065 3.20167 8.21258 1.4078C6.33546 -0.469266 3.28256 -0.469266 1.40681 1.4078C-0.468937 3.28486 -0.468937 6.33767 1.40681 8.21473C1.8528 8.66279 2.38314 9.01804 2.96721 9.25997C3.55128 9.5019 4.1775 9.62571 4.8097 9.62425C4.90088 9.62425 4.98832 9.58803 5.0528 9.52356C5.11727 9.45908 5.15349 9.37164 5.15349 9.28046C5.15349 9.18929 5.11727 9.10184 5.0528 9.03737C4.98832 8.9729 4.90088 8.93668 4.8097 8.93668C4.26779 8.93816 3.73097 8.83215 3.23031 8.62479C2.72965 8.41743 2.27509 8.11283 1.89294 7.72862C1.12078 6.95404 0.687187 5.90496 0.687187 4.81126C0.687187 3.71757 1.12078 2.66849 1.89294 1.89391C2.66695 1.12119 3.71597 0.687181 4.8097 0.687181C5.90342 0.687181 6.95244 1.12119 7.72646 1.89391C8.49861 2.66849 8.9322 3.71757 8.9322 4.81126C8.9322 5.90496 8.49861 6.95404 7.72646 7.72862C7.69266 7.76243 7.66628 7.80291 7.64902 7.84748C7.63175 7.89206 7.62397 7.93974 7.62617 7.98749C7.62837 8.03524 7.6405 8.08201 7.66179 8.12481C7.68309 8.1676 7.71307 8.20549 7.74983 8.23605Z" fill="white"/>
  </g>
  <defs>
    <clipPath id="clip0_1_17">
      <rect width="11" height="11" fill="white"/>
    </clipPath>
  </defs>
</svg>